<svg xmlns="http://www.w3.org/2000/svg" viewBox="0 0 128 128" fill="none">
  <defs>
    <linearGradient id="meat" x1="0" y1="0" x2="1" y2="1">
      <stop offset="0%" stop-color="#C0392B"/>
      <stop offset="100%" stop-color="#E74C3C"/>
    </linearGradient>
    <linearGradient id="fat" x1="0" y1="0" x2="1" y2="1">
      <stop offset="0%" stop-color="#F5CBA7"/>
      <stop offset="100%" stop-color="#FDEBD0"/>
    </linearGradient>
    <linearGradient id="gon" x1="0" y1="0" x2="1" y2="0">
      <stop offset="0%" stop-color="#27AE60"/>
      <stop offset="100%" stop-color="#2ECC71"/>
    </linearGradient>
    <linearGradient id="goff" x1="0" y1="0" x2="1" y2="0">
      <stop offset="0%" stop-color="#95A5A6"/>
      <stop offset="100%" stop-color="#BDC3C7"/>
    </linearGradient>
  </defs>

  <!-- Strip 1  ON -->
  <g transform="translate(8, 14)">
    <path d="M0,10 C8,-3 16,5 26,1 C36,-3 46,7 56,3 C66,-1 76,5 86,1 C92,0 98,4 104,3 L104,20 C98,21 92,16 86,18 C76,22 66,15 56,19 C46,23 36,14 26,18 C16,22 8,14 0,28 Z" fill="url(#meat)"/>
    <path d="M0,10 C8,-3 16,5 26,1 C36,-3 46,7 56,3 C66,-1 76,5 86,1 C92,0 98,4 104,3 L104,10 C98,11 92,8 86,8 C76,12 66,6 56,9 C46,13 36,7 26,8 C16,12 8,7 0,18 Z" fill="url(#fat)" opacity="0.85"/>
    <g transform="translate(74, 4)">
      <rect width="22" height="12" rx="6" fill="url(#gon)"/>
      <circle cx="16" cy="6" r="4.5" fill="#fff"/>
    </g>
  </g>

  <!-- Strip 2  ON -->
  <g transform="translate(4, 48)">
    <path d="M0,12 C9,-1 18,7 28,3 C38,-2 48,8 58,4 C68,0 78,7 88,3 C96,0 104,6 112,4 L112,22 C104,23 96,18 88,20 C78,24 68,17 58,21 C48,25 38,16 28,20 C18,24 9,15 0,28 Z" fill="url(#meat)"/>
    <path d="M0,12 C9,-1 18,7 28,3 C38,-2 48,8 58,4 C68,0 78,7 88,3 C96,0 104,6 112,4 L112,11 C104,12 96,9 88,8 C78,13 68,7 58,10 C48,14 38,8 28,9 C18,13 9,8 0,19 Z" fill="url(#fat)" opacity="0.85"/>
    <g transform="translate(82, 5)">
      <rect width="22" height="12" rx="6" fill="url(#gon)"/>
      <circle cx="16" cy="6" r="4.5" fill="#fff"/>
    </g>
  </g>

  <!-- Strip 3  OFF -->
  <g transform="translate(10, 82)">
    <path d="M0,10 C7,-2 14,5 24,2 C34,-2 44,6 54,3 C64,-1 74,5 84,2 C90,0 96,4 102,2 L102,18 C96,20 90,15 84,17 C74,20 64,14 54,18 C44,22 34,13 24,17 C14,20 7,13 0,25 Z" fill="url(#meat)" opacity="0.5"/>
    <path d="M0,10 C7,-2 14,5 24,2 C34,-2 44,6 54,3 C64,-1 74,5 84,2 C90,0 96,4 102,2 L102,9 C96,10 90,7 84,7 C74,11 64,5 54,9 C44,12 34,6 24,7 C14,11 7,6 0,16 Z" fill="url(#fat)" opacity="0.45"/>
    <g transform="translate(72, 3)">
      <rect width="22" height="12" rx="6" fill="url(#goff)"/>
      <circle cx="6" cy="6" r="4.5" fill="#fff"/>
    </g>
  </g>
</svg>
