<svg xmlns="http://www.w3.org/2000/svg" viewBox="20 95 472 330" fill="none">
  <!-- Strip 1 — ON -->
  <g transform="rotate(-2 256 161)">
    <rect x="56" y="128" width="400" height="66" rx="33" fill="#DC2626"/>
    <rect x="92" y="136" width="328" height="10" rx="5" fill="#FEE2E2"/>
    <rect x="382" y="149" width="46" height="24" rx="12" fill="#22C55E"/>
    <circle cx="416" cy="161" r="8" fill="#fff"/>
  </g>
  <!-- Strip 2 — ON -->
  <g transform="rotate(0.8 256 256)">
    <rect x="56" y="223" width="400" height="66" rx="33" fill="#DC2626"/>
    <rect x="92" y="231" width="328" height="10" rx="5" fill="#FEE2E2"/>
    <rect x="382" y="244" width="46" height="24" rx="12" fill="#22C55E"/>
    <circle cx="416" cy="256" r="8" fill="#fff"/>
  </g>
  <!-- Strip 3 — OFF -->
  <g transform="rotate(2.5 256 351)">
    <rect x="56" y="318" width="400" height="66" rx="33" fill="#DC2626" opacity="0.25"/>
    <rect x="92" y="326" width="328" height="10" rx="5" fill="#FEE2E2" opacity="0.25"/>
    <rect x="82" y="339" width="46" height="24" rx="12" fill="#9CA3AF"/>
    <circle cx="94" cy="351" r="8" fill="#fff"/>
  </g>
</svg>
